<svg width="32" height="32" viewBox="0 0 32 32" fill="none" xmlns="http://www.w3.org/2000/svg">
<g clip-path="url(#clip0)">
<path d="M31.75 14.6875C31.7497 14.102 31.619 13.524 31.3671 12.9955C31.1153 12.467 30.7488 12.0013 30.2943 11.6323C29.8398 11.2633 29.3088 11.0003 28.7398 10.8624C28.1709 10.7245 27.5783 10.7153 27.0053 10.8353L13.2241 13.7162C12.3394 13.9015 11.5455 14.3855 10.9755 15.0869C10.4055 15.7884 10.0941 16.6646 10.0938 17.5684V25.1875C10.094 25.7729 10.2248 26.3509 10.4766 26.8794C10.7284 27.4079 11.0949 27.8736 11.5494 28.2426C12.0039 28.6116 12.535 28.8746 13.1039 29.0125C13.6729 29.1504 14.2654 29.1597 14.8384 29.0396L22.9825 27.3334C23.2891 27.268 23.6068 27.2768 23.9093 27.359C24.2117 27.4412 24.4902 27.5944 24.7216 27.8059L28.4688 31.2315C28.7509 31.4839 29.0999 31.6496 29.4739 31.7088C29.8479 31.7679 30.2309 31.7179 30.5772 31.5649C30.9235 31.4118 31.2183 31.1621 31.4263 30.8458C31.6343 30.5294 31.7467 30.1598 31.75 29.7812V22.3196V14.6875Z" fill="white" fill-opacity="0.6"/>
<path d="M18.5266 5.57601L10.225 6.9607C9.89321 7.01448 9.55315 6.9824 9.23725 6.86753C8.92134 6.75265 8.6401 6.5588 8.42034 6.30445L3.69534 0.916636C3.43026 0.616047 3.07975 0.403519 2.69065 0.307454C2.30155 0.211389 1.89241 0.236363 1.51788 0.379039C1.14336 0.521714 0.821302 0.775295 0.594745 1.10589C0.368188 1.43649 0.247925 1.82836 0.250027 2.22914V19.2916C0.250493 19.9585 0.396136 20.6172 0.676838 21.2221C0.957541 21.827 1.36657 22.3635 1.87551 22.7944C2.38446 23.2253 2.98111 23.5402 3.62402 23.7173C4.26693 23.8943 4.94068 23.9293 5.59847 23.8198L20.036 21.4179C21.1093 21.2391 22.0843 20.6852 22.7873 19.8548C23.4904 19.0243 23.8758 17.9713 23.875 16.8832V10.1041C23.8746 9.43729 23.7289 8.77854 23.4482 8.17365C23.1675 7.56876 22.7585 7.03224 22.2495 6.60136C21.7406 6.17047 21.1439 5.85556 20.501 5.67849C19.8581 5.50143 19.1844 5.46646 18.5266 5.57601Z" fill="white"/>
</g>
<defs>
<clipPath id="clip0">
<rect width="31.5" height="31.5" fill="white" transform="translate(0.25 0.250061)"/>
</clipPath>
</defs>
</svg>
